<svg width="63" height="56" viewBox="0 0 63 56" fill="none" xmlns="http://www.w3.org/2000/svg">
<g clip-path="url(#clip0_6_447)">
<path d="M28.9999 7.68803C28.9999 6.86301 28.9999 0.829244 28.9999 0.000183105H6.69228C3.00217 0.000183105 0 2.69168 0 6.00016V26.0001C1.01488 26.0001 10.366 26.0001 11.5777 26.0001C13.0977 26.0001 14.1796 27.3405 13.6917 28.6387C13.5717 28.9581 12.3244 30.481 13.5194 32.3363C14.953 34.5623 18.5093 34.5615 19.9423 32.3363C20.6115 31.2971 20.6275 30.0495 19.9518 29.0001C19.0937 27.6673 20.1704 26.0001 21.8838 26.0001H28.9999V22.3122C28.8969 22.3207 28.7937 22.3274 28.6908 22.3323C24.2676 22.5429 20.077 19.4206 20.077 15.0001C20.0768 10.4868 24.4513 7.31342 28.9999 7.68803Z" fill="black"/>
<path d="M55.7692 0.00012207H33.4615C33.4615 0.910011 33.4615 9.29381 33.4615 10.3801C33.4615 11.9189 31.5993 12.8804 30.1156 12.1123C27.6858 10.8551 24.5385 12.3909 24.5385 15.0001C24.5385 17.6124 27.688 19.1441 30.1156 17.8879C31.6023 17.1186 33.4615 18.0839 33.4615 19.6201V26H37.575C37.4227 24.512 37.7902 23.0075 38.6557 21.6635C41.8064 16.7715 49.6634 16.7842 52.8059 21.6635C53.6639 22.9955 54.0398 24.5039 53.8868 25.9999C54.807 25.9999 61.537 25.9999 62.4617 25.9999V6.00009C62.4614 2.69162 59.4593 0.00012207 55.7692 0.00012207Z" fill="black"/>
<path d="M50.8837 30C49.1674 30 48.0953 28.3305 48.9517 27.0002C49.6355 25.9381 49.6034 24.6906 48.9422 23.6639C47.5246 21.4629 43.9604 21.4263 42.5194 23.6639C41.8619 24.6847 41.8236 25.9345 42.5097 27.0002C43.3704 28.3369 42.2861 30 40.5776 30H33.4615V33.6864C35.1093 33.5507 36.7888 33.8738 38.2982 34.6553C43.7555 37.4804 43.7416 44.524 38.2982 47.3418C36.7888 48.1232 35.109 48.4465 33.4615 48.3108C33.4615 49.136 33.4615 55.1717 33.4615 55.9998H55.7691C59.4592 55.9998 62.4614 53.3082 62.4614 49.9998V30C61.4465 30 52.0954 30 50.8837 30Z" fill="black"/>
<path d="M36.0672 38.1193C33.965 37.0309 32.3573 38.1797 31.8034 38.3116C30.3857 38.6492 29 37.6877 29 36.3785V30H24.8866C25.0379 31.4772 24.6775 32.9831 23.8059 34.3364C20.6578 39.2248 12.8018 39.2219 9.65554 34.3364C8.78388 32.9831 8.42351 31.4772 8.57478 30C7.65457 30 0.924722 30 0 30V49.9999C0 53.3083 3.00217 55.9999 6.69228 55.9999H28.9999C28.9999 55.096 28.9999 46.7027 28.9999 45.6186C28.9999 44.0798 30.8622 43.1183 32.3459 43.8864C33.5254 44.497 34.9169 44.4732 36.0671 43.8778C38.5653 42.5847 38.5238 39.3911 36.0672 38.1193Z" fill="black"/>
</g>
<defs>
<clipPath id="clip0_6_447">
<rect width="62.4615" height="56" fill="white"/>
</clipPath>
</defs>
</svg>
