<svg width="92" height="82" viewBox="0 0 92 82" fill="none" xmlns="http://www.w3.org/2000/svg">
<path d="M88.3175 14.35C88.0317 13.325 86.8885 12.8125 85.7452 12.8125H77.1707V5.12501C77.1707 4.10001 76.599 3.07501 75.4558 2.81876C74.3125 2.30626 73.1692 2.56251 72.3118 3.33126L60.8791 13.5813C60.3074 14.0938 60.0216 14.6063 60.0216 15.375V24.6L43.73 39.2063C42.5868 40.2313 42.5868 41.7688 43.73 42.7938C44.3017 43.3063 45.1591 43.5625 45.7308 43.5625C46.3024 43.5625 47.1599 43.3063 47.7315 42.7938L64.0231 28.1875H74.3125C75.1699 28.1875 75.7416 27.9313 76.3132 27.4188L87.7459 17.1688C88.6034 16.4 88.8892 15.375 88.3175 14.35Z" fill="white"/>
<path d="M51.7329 46.3813C50.3039 47.9188 48.0173 48.6875 45.7308 48.6875C43.4442 48.6875 41.1577 47.9188 39.7286 46.3813C36.2988 43.3063 36.2988 38.4375 39.7286 35.6187L47.7315 28.4438C47.1599 28.1875 46.3024 28.1875 45.7308 28.1875C37.7279 28.1875 31.4399 33.825 31.4399 41C31.4399 48.175 37.7279 53.8125 45.7308 53.8125C53.7337 53.8125 60.0216 48.175 60.0216 41C60.0216 40.4875 60.0216 39.7188 59.7358 39.2063L51.7329 46.3813Z" fill="white"/>
<path d="M80.3147 31.0063C78.8856 32.5438 76.599 33.3125 74.3125 33.3125H66.3096L64.3089 35.1062C65.1663 36.9 65.4522 38.95 65.4522 41C65.4522 50.9938 56.5918 58.9375 45.4449 58.9375C34.2981 58.9375 25.4377 50.9938 25.4377 41C25.4377 31.0063 34.2981 23.0625 45.4449 23.0625C47.7315 23.0625 50.018 23.575 52.0187 24.0875L54.3053 22.55V15.375C54.3053 13.325 55.1627 11.275 56.8776 9.99375L59.7358 7.43125C55.1627 5.89375 50.5897 5.125 45.7308 5.125C23.7228 5.125 5.71634 21.2688 5.71634 41C5.71634 60.7313 23.7228 76.875 45.7308 76.875C67.7387 76.875 85.7452 60.7313 85.7452 41C85.7452 36.6437 84.8877 32.5438 83.1728 28.4438L80.3147 31.0063Z" fill="white"/>
</svg>
