<svg width="77" height="56" viewBox="0 0 77 56" fill="none" xmlns="http://www.w3.org/2000/svg">
<path fill-rule="evenodd" clip-rule="evenodd" d="M0.621796 28C0.621796 33.6013 2.24127 35.4876 5.48027 39.2603C11.9476 46.7931 22.794 55.3334 38.7308 55.3334C54.6676 55.3334 65.5137 46.7931 71.9812 39.2603C75.2201 35.4876 76.8397 33.6013 76.8397 28C76.8397 22.3987 75.2201 20.5125 71.9812 16.7398C65.5137 9.20685 54.6676 0.666687 38.7308 0.666687C22.794 0.666687 11.9476 9.20685 5.48027 16.7398C2.24127 20.5125 0.621796 22.3987 0.621796 28ZM38.7308 15.1875C30.8381 15.1875 24.4399 20.9239 24.4399 28C24.4399 35.0763 30.8381 40.8125 38.7308 40.8125C46.6235 40.8125 53.0216 35.0763 53.0216 28C53.0216 20.9239 46.6235 15.1875 38.7308 15.1875Z" fill="white"/>
</svg>
